<?xml version="1.0" encoding="UTF-8"?>
<svg width="22px" height="27px" viewBox="0 0 22 27" version="1.1" xmlns="http://www.w3.org/2000/svg" xmlns:xlink="http://www.w3.org/1999/xlink">
    <!-- Generator: Sketch 51.1 (57501) - http://www.bohemiancoding.com/sketch -->
    <title></title>
    <desc>Created with Sketch.</desc>
    <defs></defs>
    <g id="Page-1" stroke="none" stroke-width="1" fill="none" fill-rule="evenodd">
        <g id="Generic-Tile" transform="translate(-22.000000, -13.000000)" fill="#FFFFFF">
            <g id="Header" transform="translate(22.000000, 12.000000)">
                <g id="Title">
                    <path d="M18.4569872,15.5117438 C18.4179245,16.2148671 18.5546436,16.9179904 18.8671425,17.6211137 C19.4140159,19.0664231 20.4687009,20.1601699 22.0311975,20.9023559 C21.5624486,22.3867271 20.8397944,23.8125055 19.8632339,25.1796895 C18.5741745,26.9374978 17.3046459,27.8359328 16.0546492,27.8749955 C15.5077758,27.8749955 14.8046525,27.6992147 13.9452793,27.347653 C13.0077815,26.9960914 12.2070018,26.8203105 11.5429412,26.8203105 C10.8788806,26.8203105 10.0390383,27.0156223 9.02341599,27.4062466 C8.20310544,27.7187456 7.57810663,27.8749955 7.14842046,27.8749955 C6.28904721,27.9140582 5.37108124,27.4453094 4.39452077,26.4687489 C3.65233474,25.7265629 2.91014961,24.7109406 2.16796358,23.4218811 C1.58202748,22.3671962 1.1328095,21.4101675 0.820310544,20.5507942 C0.273437146,18.9101732 0,17.3281457 0,15.8047118 C0,14.125028 0.332030756,12.6797196 0.996091375,11.4687846 C1.62109018,10.3359751 2.45116573,9.47660189 3.48631981,8.89066579 C4.52147389,8.30472969 5.60545568,7.99223073 6.73826518,7.95316803 C7.36326399,7.95316803 8.32029266,8.18754247 9.60935209,8.65629135 C10.4296626,8.96879031 10.9570051,9.12504023 11.1913796,9.12504023 C11.425754,9.12504023 11.9140338,8.98832211 12.6562198,8.71488496 C13.3984059,8.44144781 13.984342,8.24613608 14.4140281,8.12894886 C15.1562142,7.93363712 15.8202748,7.85551171 16.4062109,7.89457442 C18.6327681,8.08988615 20.2929201,8.96879031 21.3866678,10.5312869 C19.394485,11.7031591 18.4179245,13.3633111 18.4569872,15.5117438 Z M15.1171515,5.84379806 L15.1171515,5.90239167 C13.8671547,7.34770102 12.5195017,8.01176164 11.0741923,7.89457442 C10.9179424,6.33207784 11.4062231,4.9258312 12.5390326,3.67583448 C13.0077815,3.12896108 13.6132485,2.66021219 14.3554345,2.26958783 C15.0976206,1.87896346 15.8202748,1.66412082 16.5233981,1.62505811 C16.6405853,3.18755469 16.1718364,4.59380133 15.1171515,5.84379806 Z" id=""></path>
                </g>
            </g>
        </g>
    </g>
</svg>