<?xml version="1.0" encoding="UTF-8"?>
<svg width="28px" height="25px" viewBox="0 0 28 25" version="1.1" xmlns="http://www.w3.org/2000/svg" xmlns:xlink="http://www.w3.org/1999/xlink">
    <!-- Generator: Sketch 51.1 (57501) - http://www.bohemiancoding.com/sketch -->
    <title></title>
    <desc>Created with Sketch.</desc>
    <defs></defs>
    <g id="Symbols" stroke="none" stroke-width="1" fill="none" fill-rule="evenodd">
        <g id="Section-22" transform="translate(-291.000000, -18.000000)" fill="#404040">
            <g id="Group">
                <g id="Modality-/-Patient-Row-/-Lights-Off">
                    <path d="M318.999933,24.3750396 L318.999933,40.1250021 C318.999933,40.8541667 318.744725,41.4739575 318.23431,41.9843727 C317.723895,42.4947878 317.104104,42.7499958 316.37494,42.7499958 L293.624994,42.7499958 C292.895829,42.7499958 292.276038,42.4947878 291.765623,41.9843727 C291.255208,41.4739575 291,40.8541667 291,40.1250021 L291,24.3750396 C291,23.645875 291.255208,23.0260842 291.765623,22.5156691 C292.276038,22.0052539 292.895829,21.7500459 293.624994,21.7500459 L298.437482,21.7500459 L299.093731,19.9453627 C299.31248,19.4349475 299.640604,19.0247923 300.078103,18.7148969 C300.515602,18.4050015 301.007789,18.2500542 301.554662,18.2500542 L308.445271,18.2500542 C308.992145,18.2500542 309.484331,18.4050015 309.92183,18.7148969 C310.359329,19.0247923 310.687453,19.4349475 310.906203,19.9453627 L311.562451,21.7500459 L316.37494,21.7500459 C317.104104,21.7500459 317.723895,22.0052539 318.23431,22.5156691 C318.744725,23.0260842 318.999933,23.645875 318.999933,24.3750396 Z M311.562451,32.2500209 C311.562451,31.0468987 311.270785,29.9440365 310.687453,28.941435 C310.104121,27.9388335 309.311154,27.1458666 308.308552,26.5625344 C307.305951,25.9792022 306.203089,25.6875365 304.999967,25.6875365 C303.796844,25.6875365 302.693982,25.9792022 301.691381,26.5625344 C300.688779,27.1458666 299.895812,27.9388335 299.31248,28.941435 C298.729148,29.9440365 298.437482,31.0468987 298.437482,32.2500209 C298.437482,33.453143 298.729148,34.5560052 299.31248,35.5586067 C299.895812,36.5612082 300.688779,37.3541751 301.691381,37.9375073 C302.693982,38.5208395 303.796844,38.8125052 304.999967,38.8125052 C306.203089,38.8125052 307.305951,38.5208395 308.308552,37.9375073 C309.311154,37.3541751 310.104121,36.5612082 310.687453,35.5586067 C311.270785,34.5560052 311.562451,33.453143 311.562451,32.2500209 Z M309.812455,32.2500209 C309.812455,33.5625177 309.338498,34.6927236 308.390584,35.6406378 C307.442669,36.5885519 306.312463,37.0625094 304.999967,37.0625094 C303.68747,37.0625094 302.557264,36.5885519 301.60935,35.6406378 C300.661436,34.6927236 300.187478,33.5625177 300.187478,32.2500209 C300.187478,30.937524 300.661436,29.8073181 301.60935,28.8594039 C302.557264,27.9114898 303.68747,27.4375323 304.999967,27.4375323 C306.312463,27.4375323 307.442669,27.9114898 308.390584,28.8594039 C309.338498,29.8073181 309.812455,30.937524 309.812455,32.2500209 Z" id=""></path>
                </g>
            </g>
        </g>
    </g>
</svg>