<?xml version="1.0" encoding="UTF-8"?>
<svg width="14px" height="29px" viewBox="0 0 14 29" version="1.1" xmlns="http://www.w3.org/2000/svg" xmlns:xlink="http://www.w3.org/1999/xlink">
    <!-- Generator: Sketch 51.1 (57501) - http://www.bohemiancoding.com/sketch -->
    <title></title>
    <desc>Created with Sketch.</desc>
    <defs></defs>
    <g id="Symbols" stroke="none" stroke-width="1" fill="none" fill-rule="evenodd">
        <g id="Section-22" transform="translate(-495.000000, -16.000000)" fill="#FF9C9D">
            <g id="Group">
                <g id="Modality-/-Patient-Row-/-Lights-Off">
                    <path d="M501.999983,16.5000584 C502.984356,16.5000584 503.813781,16.8372975 504.488259,17.5117748 C505.162736,18.186252 505.499975,19.0156774 505.499975,20.0000501 C505.499975,20.9844227 505.162736,21.8138481 504.488259,22.4883254 C503.813781,23.1628027 502.984356,23.5000417 501.999983,23.5000417 C501.015611,23.5000417 500.186185,23.1628027 499.511708,22.4883254 C498.837231,21.8138481 498.499992,20.9844227 498.499992,20.0000501 C498.499992,19.0156774 498.837231,18.186252 499.511708,17.5117748 C500.186185,16.8372975 501.015611,16.5000584 501.999983,16.5000584 Z M508.50778,35.8593873 C508.617155,36.2968862 508.544239,36.6796978 508.289031,37.007822 C508.033823,37.3359462 507.68747,37.5000083 507.249971,37.5000083 L504.187478,37.5000083 L504.187478,43.1874948 C504.187478,43.5520775 504.059875,43.8619721 503.804667,44.1171801 C503.549459,44.3723881 503.239564,44.4999917 502.874981,44.4999917 L501.124985,44.4999917 C500.760403,44.4999917 500.450508,44.3723881 500.1953,44.1171801 C499.940092,43.8619721 499.812489,43.5520775 499.812489,43.1874948 L499.812489,37.5000083 L496.749996,37.5000083 C496.312497,37.5000083 495.966144,37.3359462 495.710936,37.007822 C495.455728,36.6796978 495.382812,36.2968862 495.492186,35.8593873 L498.11718,25.3594123 C498.190096,25.0677466 498.345044,24.8307674 498.582023,24.6484765 C498.819001,24.4661855 499.083324,24.3750396 499.37499,24.3750396 L499.976551,24.3750396 C500.632799,24.6667053 501.307276,24.8125386 501.999983,24.8125386 C502.69269,24.8125386 503.367168,24.6667053 504.023416,24.3750396 L504.624977,24.3750396 C504.916643,24.3750396 505.180966,24.4661855 505.417944,24.6484765 C505.654922,24.8307674 505.80987,25.0677466 505.882787,25.3594123 L508.50778,35.8593873 Z" id=""></path>
                </g>
            </g>
        </g>
    </g>
</svg>