<?xml version="1.0" encoding="UTF-8"?>
<svg width="11px" height="29px" viewBox="0 0 11 29" version="1.1" xmlns="http://www.w3.org/2000/svg" xmlns:xlink="http://www.w3.org/1999/xlink">
    <!-- Generator: Sketch 51.1 (57501) - http://www.bohemiancoding.com/sketch -->
    <title></title>
    <desc>Created with Sketch.</desc>
    <defs></defs>
    <g id="Symbols" stroke="none" stroke-width="1" fill="none" fill-rule="evenodd">
        <g id="Section-12" transform="translate(-298.000000, -16.000000)" fill="#4A90E2">
            <g id="Group">
                <g id="Modality-/-Patient-Row-/-Lights-Off">
                    <path d="M303.249987,16.5000584 C304.23436,16.5000584 305.063786,16.8372975 305.738263,17.5117748 C306.41274,18.186252 306.749979,19.0156774 306.749979,20.0000501 C306.749979,20.9844227 306.41274,21.8138481 305.738263,22.4883254 C305.063786,23.1628027 304.23436,23.5000417 303.249987,23.5000417 C302.265615,23.5000417 301.436189,23.1628027 300.761712,22.4883254 C300.087235,21.8138481 299.749996,20.9844227 299.749996,20.0000501 C299.749996,19.0156774 300.087235,18.186252 300.761712,17.5117748 C301.436189,16.8372975 302.265615,16.5000584 303.249987,16.5000584 Z M305.874981,24.3750396 C306.604146,24.3750396 307.223937,24.6302476 307.734352,25.1406628 C308.244767,25.651078 308.499975,26.2708687 308.499975,27.0000334 L308.499975,34.4375156 C308.499975,34.8020984 308.372371,35.1119929 308.117163,35.3672009 C307.861955,35.6224089 307.552061,35.7500125 307.187478,35.7500125 L306.31248,35.7500125 L306.31248,43.1874948 C306.31248,43.5520775 306.184877,43.8619721 305.929669,44.1171801 C305.674461,44.3723881 305.364566,44.4999917 304.999983,44.4999917 L301.499992,44.4999917 C301.135409,44.4999917 300.825514,44.3723881 300.570306,44.1171801 C300.315098,43.8619721 300.187495,43.5520775 300.187495,43.1874948 L300.187495,35.7500125 L299.312497,35.7500125 C298.947914,35.7500125 298.63802,35.6224089 298.382812,35.3672009 C298.127604,35.1119929 298,34.8020984 298,34.4375156 L298,27.0000334 C298,26.2708687 298.255208,25.651078 298.765623,25.1406628 C299.276038,24.6302476 299.895829,24.3750396 300.624994,24.3750396 L301.226555,24.3750396 C301.882803,24.6667053 302.557281,24.8125386 303.249987,24.8125386 C303.942694,24.8125386 304.617172,24.6667053 305.27342,24.3750396 L305.874981,24.3750396 Z" id=""></path>
                </g>
            </g>
        </g>
    </g>
</svg>